<?xml version="1.0" encoding="utf-8"?>
<!-- Generator: Adobe Illustrator 21.0.0, SVG Export Plug-In . SVG Version: 6.00 Build 0)  -->
<svg version="1.1" id="Слой_1" xmlns="http://www.w3.org/2000/svg" xmlns:xlink="http://www.w3.org/1999/xlink" x="0px" y="0px"
	 viewBox="0 0 676.5 316.5" style="enable-background:new 0 0 676.5 316.5;" xml:space="preserve">
<style type="text/css">
	.st0{fill:#FFFFFF;}
	.st1{fill:#EA0040;}
</style>
<g>
	<path class="st0" d="M67.2,118.7v30.4H14.6V12.7c16.8,0,34.7,0,51.4,0l27.3,39l27.3-39c16.6,0,34.7,0,51.3,0v136.4h-52.4v-30.4
		l3.7-31.6l-20.5,31.6H83.9L63.5,87.2L67.2,118.7z"/>
	<path class="st0" d="M277.4,12.7v39.6h-21.6c0,19.9,0,38,0,57.9h21.6v39h-97.2v-39h21.6c0-19.9,0-38,0-57.9h-21.6V12.7H277.4z"/>
	<path class="st0" d="M337.8,125.6v23.6h-53.2V12.7h44.4l37.4,53.6l-3.3-28.6V12.7H416v136.4h-44.4l-37.8-53.8L337.8,125.6z"/>
	<path class="st0" d="M423.8,12.7c36.4,0,72.9,0,109.3,0v40.1h-56.3V62h54.2v38h-54.2v9h56.3v40.1c-36.4,0-72.9,0-109.3,0V12.7z"/>
	<path class="st0" d="M593.3,112.9v36.2c-17.7,0-35.5,0-53.2,0V12.7c22.2,0,36.8,0,58.9,0c33.9,0.2,66.8,9.5,66.8,50.3
		c0,19.9-8,32.3-20.1,39.8l22.2,42.1v4.3h-53.6L597,112.9H593.3z M600.1,72c8.8-0.2,12.9-2.3,12.9-9c0-6.4-4.1-9.4-12.9-9.4h-7.4V72
		H600.1z"/>
	<path class="st0" d="M43,313v-93.7H14v-42.7h111.3v42.7h-29V313H43z"/>
	<path class="st0" d="M132.8,176.6c36.4,0,72.9,0,109.3,0v40.1h-56.3v9.2H240v38h-54.2v9h56.3V313c-36.4,0-72.9,0-109.3,0V176.6z"/>
	<path class="st0" d="M392.2,236.4h-50.9c-6.8-22.8-40.5-20.1-40.5,8.6c0.2,28.8,34.5,31.2,40.7,7.8h50.7
		c-8,86.3-143.8,84.6-144.2-7.8C248.4,152.4,383.4,149.9,392.2,236.4z"/>
	<path class="st0" d="M451.4,176.6v45.8h24.4v-45.8c17.5,0,35.3,0,53,0V313h-53v-47.5h-24.4V313h-53.2V176.6
		C416,176.6,433.7,176.6,451.4,176.6z"/>
</g>
<circle class="st1" cx="600.2" cy="241.9" r="32.3"/>
</svg>
